<svg width="7" height="13" viewBox="0 0 7 13" fill="none" xmlns="http://www.w3.org/2000/svg">
<path d="M0.700958 6.827L6.21196 12.323C6.29962 12.4047 6.41561 12.4492 6.53545 12.447C6.65528 12.4448 6.76958 12.3961 6.85419 12.3113C6.93881 12.2264 6.98714 12.1119 6.98896 11.9921C6.99078 11.8723 6.94596 11.7564 6.86396 11.669L1.68096 6.5L6.86396 1.331C6.94596 1.24359 6.99078 1.12773 6.98896 1.00789C6.98714 0.888049 6.93881 0.773608 6.85419 0.688729C6.76958 0.60385 6.65528 0.555178 6.53545 0.552989C6.41561 0.5508 6.29962 0.595265 6.21196 0.676997L0.700958 6.177C0.657963 6.21991 0.623852 6.27088 0.600578 6.32699C0.577304 6.3831 0.565323 6.44325 0.565323 6.504C0.565323 6.56474 0.577304 6.62489 0.600578 6.681C0.623852 6.73711 0.657963 6.78808 0.700958 6.831V6.827Z" fill="white"/>
</svg>
