<svg width="8" height="13" viewBox="0 0 8 13" fill="none" xmlns="http://www.w3.org/2000/svg">
<path d="M6.96994 6.173L1.45894 0.677003C1.37128 0.595271 1.25529 0.550806 1.13545 0.552995C1.01562 0.555184 0.901323 0.603856 0.816704 0.688735C0.732085 0.773614 0.68376 0.888055 0.681938 1.00789C0.680116 1.12773 0.724939 1.24359 0.806938 1.331L5.98994 6.5L0.806938 11.669C0.724939 11.7564 0.680116 11.8723 0.681938 11.9921C0.68376 12.112 0.732085 12.2264 0.816704 12.3113C0.901323 12.3961 1.01562 12.4448 1.13545 12.447C1.25529 12.4492 1.37128 12.4047 1.45894 12.323L6.96994 6.823C7.01294 6.78009 7.04705 6.72912 7.07032 6.67301C7.09359 6.6169 7.10558 6.55675 7.10558 6.496C7.10558 6.43526 7.09359 6.37511 7.07032 6.319C7.04705 6.26289 7.01294 6.21192 6.96994 6.169V6.173Z" fill="white"/>
</svg>
